<svg xmlns="http://www.w3.org/2000/svg" viewBox="0 0 600 360">
  <defs>
    <linearGradient id="bg" x1="0" y1="0" x2="1" y2="1">
      <stop offset="0" stop-color="#0b1222"/>
      <stop offset="1" stop-color="#091022"/>
    </linearGradient>
    <linearGradient id="hill" x1="0" y1="0" x2="0" y2="1">
      <stop offset="0" stop-color="#1e2a46"/>
      <stop offset="1" stop-color="#0e162a"/>
    </linearGradient>
    <linearGradient id="crop" x1="0" y1="0" x2="1" y2="0">
      <stop offset="0" stop-color="#22c55e"/>
      <stop offset="1" stop-color="#16a34a"/>
    </linearGradient>
  </defs>
  <rect width="600" height="360" fill="url(#bg)"/>
  <circle cx="500" cy="60" r="40" fill="#ffd166" opacity=".9"/>
  <path d="M0 260 C 120 220, 240 300, 360 260 S 600 220, 600 260 L 600 360 L 0 360 Z" fill="url(#hill)"/>
  <g transform="translate(20,260)">
    <path d="M0 60 Q 80 20, 160 60 T 320 60 T 480 60 T 640 60" stroke="url(#crop)" stroke-width="6" fill="none"/>
    <path d="M0 80 Q 80 40, 160 80 T 320 80 T 480 80 T 640 80" stroke="url(#crop)" stroke-width="6" fill="none" opacity=".8"/>
  </g>
  <g transform="translate(420,190)">
    <rect x="-30" y="-25" width="60" height="40" rx="6" fill="#8b5e34"/>
    <rect x="-18" y="-35" width="36" height="12" fill="#a67c52"/>
    <rect x="-10" y="-50" width="20" height="15" fill="#22c55e"/>
    <rect x="-70" y="10" width="40" height="12" rx="6" fill="#a67c52"/>
  </g>
</svg>
